<svg width="98" height="24" viewBox="0 0 98 24" fill="none" xmlns="http://www.w3.org/2000/svg">
<g clip-path="url(#clip0_1_1073)">
<path d="M0 7.50319C0 6.32826 0.973914 5.41891 2.14217 5.41891H3.11609C3.19361 5.41891 3.31043 5.41891 3.3885 5.45662C4.94654 2.23566 8.64621 0 12.9693 0C17.293 0 20.9927 2.23566 22.5119 5.41891H23.4853C24.6929 5.41891 25.6275 6.36597 25.6275 7.50319V9.89023C25.6275 11.0652 24.6536 11.9745 23.4853 11.9745H22.5507C21.2263 14.7031 18.2663 16.7491 14.6835 17.242V19.5154C15.4232 19.9324 15.9298 20.6903 15.9298 21.5997C15.9298 22.926 14.8391 23.9873 13.4759 23.9873C12.1128 23.9873 11.022 22.926 11.022 21.5997C11.022 20.728 11.5287 19.9324 12.2684 19.5154V17.3557C8.25698 17.0901 4.90724 14.9681 3.46656 11.9745C3.3885 11.9745 3.27167 12.0122 3.19361 12.0122H2.22024C1.01267 12.0122 0.078064 11.0652 0.078064 9.92847V7.50319H0Z" fill="#045AFD"/>
<path d="M89.2393 20.8258V20.5667H89.2652V20.8258H89.2393Z" fill="#1E1E1E"/>
<path d="M88.8992 6.68066C89.515 6.68066 90.059 6.73127 90.5314 6.83248L90.253 8.93271C89.7385 8.81463 89.2366 8.75559 88.7474 8.75559C88.0136 8.75559 87.3304 8.95802 86.6978 9.36288C86.0736 9.76775 85.5844 10.3286 85.2302 11.0456C84.8759 11.7541 84.6988 12.5427 84.6988 13.4115V20.8256H82.4214V6.9337H84.2939L84.547 9.47675H84.6482C85.1796 8.55737 85.8079 7.86151 86.5333 7.38917C87.2587 6.91683 88.0473 6.68066 88.8992 6.68066Z" fill="#1E1E1E"/>
<path d="M79.8799 6.68066C80.4956 6.68066 81.0396 6.73127 81.512 6.83248L81.2336 8.93271C80.7191 8.81463 80.2173 8.75559 79.7281 8.75559C78.9942 8.75559 78.311 8.95802 77.6784 9.36288C77.0543 9.76775 76.5651 10.3286 76.2108 11.0456C75.8565 11.7541 75.6794 12.5427 75.6794 13.4115V20.8256H73.4021V6.9337H75.2746L75.5276 9.47675H75.6288C76.1602 8.55737 76.7886 7.86151 77.514 7.38917C78.2393 6.91683 79.028 6.68066 79.8799 6.68066Z" fill="#1E1E1E"/>
<path d="M61.2197 6.93384V15.8788C61.2197 17.0006 61.4685 17.8356 61.9662 18.3839C62.4723 18.9237 63.2525 19.1936 64.3068 19.1936C65.7322 19.1936 66.7697 18.7972 67.4192 18.0043C68.0687 17.2114 68.3934 15.9336 68.3934 14.1707V6.93384H70.6834V20.8257H68.8109L68.482 18.9911H68.3681C67.9548 19.6575 67.3686 20.172 66.6095 20.5347C65.8503 20.8974 64.9689 21.0787 63.9652 21.0787C62.2951 21.0787 61.0341 20.6781 60.1822 19.8768C59.3388 19.0755 58.917 17.7934 58.917 16.0306V6.93384H61.2197Z" fill="#1E1E1E"/>
<path d="M56.0339 19.2188C56.3291 19.2188 56.6749 19.1893 57.0714 19.1302C57.4678 19.0712 57.7672 19.0037 57.9697 18.9278V20.6738C57.7588 20.7665 57.4298 20.8551 56.9828 20.9395C56.5442 21.0322 56.0972 21.0786 55.6417 21.0786C52.9257 21.0786 51.5677 19.6489 51.5677 16.7896V8.70495H49.6067V7.61688L51.593 6.70593L52.504 3.74536H53.8578V6.93367H57.8684V8.70495H53.8578V16.7263C53.8578 17.5276 54.0475 18.1434 54.4271 18.5735C54.8151 19.0037 55.3507 19.2188 56.0339 19.2188Z" fill="#1E1E1E"/>
<path d="M39.2082 6.93384V15.8788C39.2082 17.0006 39.457 17.8356 39.9546 18.3839C40.4607 18.9237 41.2409 19.1936 42.2952 19.1936C43.7207 19.1936 44.7582 18.7972 45.4076 18.0043C46.0571 17.2114 46.3818 15.9336 46.3818 14.1707V6.93384H48.6718V20.8257H46.7994L46.4704 18.9911H46.3565C45.9432 19.6575 45.357 20.172 44.5979 20.5347C43.8388 20.8974 42.9574 21.0787 41.9536 21.0787C40.2836 21.0787 39.0226 20.6781 38.1707 19.8768C37.3272 19.0755 36.9055 17.7934 36.9055 16.0306V6.93384H39.2082Z" fill="#1E1E1E"/>
<path d="M36.2111 8.70507H32.7065V20.8257H30.4292V8.70507H28V7.6423L30.4292 6.85788V6.0608C30.4292 4.37387 30.7961 3.10867 31.5299 2.2652C32.2722 1.42173 33.4108 1 34.9459 1C35.8316 1 36.7299 1.15604 37.6408 1.46812L37.0335 3.25206C36.2491 2.99902 35.5617 2.8725 34.9713 2.8725C34.2037 2.8725 33.6344 3.12554 33.2632 3.63162C32.8921 4.1377 32.7065 4.93899 32.7065 6.0355V6.93379H36.2111V8.70507Z" fill="#1E1E1E"/>
<path d="M15.4902 6.04224H17.087C17.8267 6.04224 18.4501 6.64829 18.4501 7.36855V10.1348C18.4501 10.8546 17.8267 11.4611 17.087 11.4611H15.4902C14.7499 11.4611 14.127 10.8546 14.127 10.1348V7.36855C14.127 6.64829 14.7112 6.04224 15.4902 6.04224Z" fill="white"/>
<path d="M8.67443 6.04224H10.2712C11.0109 6.04224 11.6344 6.64829 11.6344 7.36855V10.1348C11.6344 10.8546 11.0109 11.4611 10.2712 11.4611H8.67443C7.93417 11.4611 7.31128 10.8546 7.31128 10.1348V7.36855C7.31128 6.64829 7.93417 6.04224 8.67443 6.04224Z" fill="white"/>
<path d="M97 8C97 9.10457 96.1046 10 95 10C93.8954 10 93 9.10457 93 8C93 6.89543 93.8954 6 95 6C96.1046 6 97 6.89543 97 8Z" fill="white"/>
<path d="M94.5589 8.01392H94.9391C95.1452 8.01392 95.2956 7.97341 95.3905 7.89239C95.4854 7.81137 95.5329 7.691 95.5329 7.53128C95.5329 7.37156 95.4849 7.25524 95.3888 7.18232C95.2927 7.10825 95.1371 7.07121 94.9218 7.07121H94.5589V8.01392ZM94.5589 8.28475V9.33336H94.2395V6.79517H94.9391C95.254 6.79517 95.4866 6.85535 95.6371 6.97572C95.7887 7.09494 95.8645 7.27491 95.8645 7.51566C95.8645 7.85246 95.6949 8.07931 95.3558 8.19621L96.052 9.33336H95.6787L95.0641 8.28475H94.5589Z" fill="black"/>
<path d="M95.0001 10.1501C96.1875 10.1501 97.1501 9.18751 97.1501 8.0001C97.1501 6.81269 96.1875 5.8501 95.0001 5.8501C93.8127 5.8501 92.8501 6.81269 92.8501 8.0001C92.8501 9.18751 93.8127 10.1501 95.0001 10.1501Z" stroke="black" stroke-width="0.3"/>
</g>
<defs>
<clipPath id="clip0_1_1073">
<rect width="98" height="24" fill="white"/>
</clipPath>
</defs>
</svg>
